<?xml version="1.0" encoding="iso-8859-1"?>
<!-- Generator: Adobe Illustrator 19.0.0, SVG Export Plug-In . SVG Version: 6.00 Build 0)  -->
<svg version="1.1" id="Layer_1" xmlns="http://www.w3.org/2000/svg" xmlns:xlink="http://www.w3.org/1999/xlink" x="0px" y="0px"
	 viewBox="0 0 453.35 453.35" style="enable-background:new 0 0 453.35 453.35;" xml:space="preserve">
<g>
	<path style="fill:#AFDAF9;" d="M262.66,92.505c19.87,19.88,19.87,52.09,0,71.96s-52.09,19.87-71.96,0s-19.87-52.08,0-71.96
		C210.57,72.635,242.79,72.635,262.66,92.505z"/>
	<path style="fill:#F9A18A;" d="M328.7,91.195c-5.36-13.85-13.61-26.77-24.66-37.82c-11.72-11.72-25.44-20.22-40.06-25.51
		c-7.22-2.62-14.67-4.45-22.21-5.48c-5.01-0.7-10.05-1.05-15.09-1.05c-3.1,0-6.19,0.13-9.28,0.4
		c-24.83,2.09-49.08,12.64-68.09,31.64c-25.56,25.56-36.17,61.19-30.6,95.12c1.28,7.81,3.41,15.52,6.43,23
		c1.94,4.85,4.25,9.59,6.93,14.2c0.98,1.68,2.01,3.35,3.08,4.99l10.46,15.97l13.99,21.36l54.55,83.28l12.53,19.13l91.52-139.74
		c4.02-6.15,7.36-12.57,10.01-19.19c3.02-7.48,5.15-15.19,6.43-23c0.97-5.87,1.45-11.8,1.45-17.72
		C336.09,117.285,333.6,103.855,328.7,91.195z M192.02,165.735c-0.45-0.41-0.89-0.84-1.32-1.27c-5.94-5.94-10.1-12.98-12.48-20.46
		v-0.01c-5.62-17.55-1.45-37.55,12.48-51.49c6.05-6.05,13.24-10.26,20.88-12.62c8.34-2.58,17.22-2.97,25.72-1.16
		c9.29,1.96,18.14,6.56,25.36,13.78c19.87,19.88,19.87,52.09,0,71.96C243.22,183.905,211.97,184.325,192.02,165.735z"/>
	<path style="fill:#F2F2F2;" d="M403.2,171.495v200.02H50.16v-200.02h74.98c2.65,6.62,5.99,13.04,10.01,19.19l91.53,139.74
		l91.52-139.74c4.02-6.15,7.36-12.57,10.01-19.19L403.2,171.495L403.2,171.495z"/>
	<path style="fill:#88C5FC;" d="M426.2,166.775v227.74H27.16v-227.74c0-10.1,8.18-18.28,18.28-18.28h73.27
		c1.28,7.81,3.41,15.52,6.43,23H50.16v200.02H403.2v-200.02h-74.99c3.02-7.48,5.15-15.19,6.43-23h73.28
		C418.01,148.495,426.2,156.675,426.2,166.775z"/>
	<path style="fill:#70B1E0;" d="M426.2,394.515h27.15c0,20.71-16.79,37.5-37.5,37.5H37.5c-10.36,0-19.73-4.2-26.52-10.98
		C4.2,414.245,0,404.865,0,394.515h27.16H426.2z"/>
	<g>
		<path style="opacity:0.23;fill:#F2F2F2;enable-background:new    ;" d="M366.62,148.495l-12.18,23l-27.21,52.29l-76.88,147.73
			l-11.97,23H426.2v-227.74c0-0.32-0.01-0.63-0.02-0.94c-0.03-0.59-0.09-1.17-0.18-1.74c-0.04-0.34-0.1-0.68-0.17-1.01
			c-0.12-0.59-0.27-1.18-0.45-1.75c-0.09-0.28-0.18-0.57-0.29-0.85c-0.2-0.56-0.44-1.11-0.7-1.64c-0.09-0.21-0.2-0.41-0.31-0.61
			c-0.04-0.1-0.1-0.19-0.16-0.29c-0.09-0.19-0.2-0.37-0.31-0.55c-0.02-0.05-0.05-0.09-0.09-0.14c-0.14-0.24-0.29-0.47-0.45-0.7
			c-0.16-0.25-0.33-0.49-0.51-0.72c-0.52-0.71-1.1-1.37-1.72-1.99c-0.42-0.41-0.85-0.81-1.3-1.18c-1.35-1.12-2.87-2.04-4.51-2.74
			c-0.55-0.23-1.1-0.43-1.68-0.61c-1.71-0.53-3.54-0.82-5.43-0.82h-31.31H366.62z"/>
		<path style="opacity:0.23;fill:#F2F2F2;enable-background:new    ;" d="M117.28,148.495v19.53l-1.8,3.47l-7.17,13.77l-11.83,22.74
			l-25.96,49.88l-12.39,23.82l-7.97,15.31l-15.97,30.69l-7.03,13.51v-174.44c0-10.1,8.19-18.28,18.28-18.28L117.28,148.495
			L117.28,148.495z"/>
	</g>
	<path style="opacity:0.23;fill:#F2F2F2;enable-background:new    ;" d="M336.09,130.775c0,5.92-0.48,11.85-1.45,17.72
		c-1.28,7.81-3.41,15.52-6.43,23c-2.65,6.62-5.99,13.04-10.01,19.19l-91.52,139.74l-12.53-19.13l94.61-181.79l19.94-38.31
		C333.6,103.855,336.09,117.285,336.09,130.775z"/>
	<path style="opacity:0.23;fill:#F2F2F2;enable-background:new    ;" d="M263.98,27.865l-12.63,23.85l-14.05,27.01l-26.43,50.78
		l-18.85,36.23l-32.42,62.28l-13.99-21.36l32.61-62.65v-0.01l7.54-14.49l25.82-49.62l14.66-28.17l15.53-29.33
		C249.31,23.415,256.76,25.245,263.98,27.865z"/>
	<path style="opacity:0.23;fill:#F2F2F2;enable-background:new    ;" d="M217.4,21.735l-4.52,8.68l-13.98,26.88l-30.69,58.96
		l-14.65,28.16l-9.42,18.1l-12.07,23.18c-2.68-4.61-4.99-9.35-6.93-14.2c-3.02-7.48-5.15-15.19-6.43-23
		c-5.57-33.93,5.04-69.56,30.6-95.12C168.32,34.375,192.57,23.825,217.4,21.735z"/>
	<g>
		<path style="opacity:0.23;fill:#F2F2F2;enable-background:new    ;" d="M453.35,394.515c0,11.27-4.98,21.39-12.85,28.26H318.92
			l14.7-28.26H453.35z"/>
	</g>
	<path style="opacity:0.23;fill:#808080;enable-background:new    ;" d="M226.68,330.425c-78.36-85.15-106.58-133.75-116.64-158.93
		c-6.62-16.58-5.36-23-5.36-23h14.03c1.28,7.81,3.41,15.52,6.43,23c2.65,6.62,5.99,13.04,10.01,19.19L226.68,330.425z"/>
	<path style="opacity:0.23;fill:#808080;enable-background:new    ;" d="M226.68,330.425c78.36-85.15,106.58-133.75,116.64-158.93
		c6.62-16.58,5.36-23,5.36-23h-14.03c-1.28,7.81-3.41,15.52-6.43,23c-2.65,6.62-5.99,13.04-10.01,19.19L226.68,330.425z"/>
</g>
<g>
</g>
<g>
</g>
<g>
</g>
<g>
</g>
<g>
</g>
<g>
</g>
<g>
</g>
<g>
</g>
<g>
</g>
<g>
</g>
<g>
</g>
<g>
</g>
<g>
</g>
<g>
</g>
<g>
</g>
</svg>
